<?xml version="1.0" encoding="UTF-8" standalone="no"?>
<!-- Created with Inkscape (http://www.inkscape.org/) -->

<svg
   version="1.1"
   id="svg1"
   width="1536"
   height="1024"
   viewBox="0 0 1536 1024"
   sodipodi:docname="banner-horizontal"
   inkscape:version="1.4.2 (ebf0e940d0, 2025-05-08)"
   xmlns:inkscape="http://www.inkscape.org/namespaces/inkscape"
   xmlns:sodipodi="http://sodipodi.sourceforge.net/DTD/sodipodi-0.dtd"
   xmlns="http://www.w3.org/2000/svg"
   xmlns:svg="http://www.w3.org/2000/svg">
  <defs
     id="defs1" />
  <sodipodi:namedview
     id="namedview1"
     pagecolor="#ffffff"
     bordercolor="#000000"
     borderopacity="0.25"
     inkscape:showpageshadow="2"
     inkscape:pageopacity="0.0"
     inkscape:pagecheckerboard="true"
     inkscape:deskcolor="#d1d1d1"
     inkscape:zoom="0.78027344"
     inkscape:cx="768.3204"
     inkscape:cy="682.45307"
     inkscape:window-width="1920"
     inkscape:window-height="1008"
     inkscape:window-x="0"
     inkscape:window-y="0"
     inkscape:window-maximized="1"
     inkscape:current-layer="g1"
     inkscape:export-bgcolor="#ffffff00">
    <inkscape:page
       x="0"
       y="0"
       width="1536"
       height="1024"
       id="page2"
       margin="0"
       bleed="0" />
  </sodipodi:namedview>
  <g
     inkscape:groupmode="layer"
     inkscape:label="Image"
     id="g1">
    <path
       style="fill:#0c2931;fill-opacity:1"
       d="m 1005.5,780.39226 c -93.35906,-1.13726 -180.4753,-5.00303 -194.923,-8.64968 -11.34314,-2.86304 -4.76017,-5.05463 20.75281,-6.90899 l 16.3254,-1.18658 -3.6611,-3.77252 c -4.60662,-4.74681 -9.34431,-13.56747 -11.55172,-21.50709 l -1.70304,-6.12552 -7.91306,-0.45808 c -5.86421,-0.33947 -8.61385,-0.98105 -10.61967,-2.47791 L 809.5,727.28605 809.23011,706.14302 808.96022,685 h 99.29184 99.29184 l 1.2668,-6.75 c 1.4445,-7.69674 5.6142,-17.26526 9.553,-21.92209 1.4756,-1.74465 4.743,-4.16933 7.2608,-5.38819 3.9303,-1.90262 5.602,-2.12952 11.818,-1.60407 10.8994,0.92134 14.5897,2.45074 17.2869,7.16435 5.7676,10.0792 10.9287,32.82708 11.9639,52.73076 0.5316,10.22206 0.8478,11.80621 2.4584,12.31739 1.0166,0.32264 2.7483,0.30098 3.8483,-0.0481 1.8095,-0.57432 1.9992,-1.50928 1.992,-9.81739 0,-5.05043 -0.6794,-14.56551 -1.5,-21.1446 -0.8206,-6.5791 -1.492,-13.2166 -1.492,-14.75 V 673 h 11.8365 11.8365 l 0.6625,-51.75 c 0.3643,-28.4625 0.6629,-61.66715 0.6634,-73.78811 10e-4,-20.87352 -0.1178,-22.27269 -2.2489,-26.47712 -1.2375,-2.44146 -3.6397,-5.23571 -5.3382,-6.20945 -7.0628,-4.04903 -45.143,-7.74965 -79.9118,-7.7658 -33.01232,-0.0153 -62.06439,2.27282 -100.48427,7.91418 -13.61321,1.99889 -14.97177,2.61714 -15.00042,6.8263 -0.0112,1.64411 0.59058,2.27497 2.23469,2.34274 4.99041,0.20568 11.81526,-0.27016 22.75,-1.58618 18.99916,-2.28659 55.56613,-3.64277 89.3914,-3.3153 28.6063,0.27694 32.0009,0.48226 32.9536,1.99325 0.7907,1.25405 0.1037,6.67847 -2.6886,21.22739 -4.4981,23.43678 -5.9763,28.68554 -9.1027,32.32172 l -2.3785,2.76638 -37.3376,0.66003 c -20.53568,0.36302 -53.51527,1.40939 -73.28798,2.32528 -34.82698,1.61321 -36.08062,1.74157 -40.11833,4.10782 -5.10329,2.99073 -15.90088,12.23016 -28.08964,24.03614 -7.43544,7.20193 -9.38838,9.71729 -10.3811,13.37073 -0.71621,2.63585 -1.47913,15.06354 -1.84165,30 L 835.5,677.5 825,678.06767 c -5.775,0.31222 -10.8375,0.39816 -11.25,0.19098 -0.4125,-0.20718 -0.75,-6.11996 -0.75,-13.13953 0,-15.70692 1.39145,-20.48754 7.89715,-27.13237 2.53157,-2.5857 5.40109,-5.1269 6.37671,-5.64712 1.21045,-0.64542 2.10331,-2.99155 2.81113,-7.38671 1.69335,-10.51475 4.08209,-14.5491 14.66156,-24.7619 5.30376,-5.11993 12.42583,-11.56665 15.82683,-14.32603 l 6.18364,-5.01706 -2.37851,-2.37851 C 862.02803,576.11894 862,575.84856 862,555.52402 c 0,-23.95657 -1.27825,-21.70465 13.29695,-23.42543 4.83832,-0.57122 9.22582,-1.30365 9.75,-1.62761 0.52418,-0.32396 0.95305,-2.75621 0.95305,-5.405 0,-7.12764 1.02469,-11.00883 3.21613,-12.18165 C 890.66395,512.10948 917.91242,507 920.5968,507 920.81856,507 921,501.44474 921,494.65499 c 0,-15.01251 0.15862,-15.24027 11.58719,-16.63807 7.3316,-0.89671 71.21601,-7.36952 133.17551,-13.49344 29.3943,-2.90526 26.0736,-3.10803 56.7373,3.46444 7.7,1.65042 33.575,7.02579 57.5,11.94526 23.925,4.91948 54.75,11.40908 68.5,14.42133 13.75,3.01226 32.1713,6.94861 40.9363,8.74745 10.7695,2.21023 16.5298,3.86411 17.7668,5.10116 1.7492,1.74919 1.8187,5.54471 1.5637,85.40229 l -0.2668,83.57173 -2.3608,1.91143 c -2.0616,1.66919 -4.0576,1.91143 -15.75,1.91143 H 1277 l -0.051,3.25 c -0.028,1.7875 -0.2949,5.1625 -0.5932,7.5 l -0.5425,4.25 h 5.6432 5.6431 l -0.2999,5.75 -0.2999,5.75 -5.25,0.30226 -5.25,0.30226 v 7.32529 c 0,8.86699 0.8408,9.8352 8.1953,9.43722 l 5.3047,-0.28705 0.3134,3.21001 0.3133,3.21001 h -9.8633 -9.8632 l -1.2626,6.11283 c -1.7128,8.29239 -5.1916,15.83429 -9.5071,20.61109 l -3.5902,3.97385 13.2299,0.67713 c 30.4654,1.55927 46.3592,5.49362 34.7842,8.61045 -13.9399,3.75362 -43.8339,6.06233 -103.5544,7.99748 -32.0032,1.03701 -153.4895,1.9151 -195,1.40943 z m -59.77847,-19.91769 c 19.12816,-0.30137 38.02963,-0.79377 42.00328,-1.09422 l 7.2248,-0.54627 -2.39295,-4.72227 c -1.31613,-2.59725 -2.70487,-6.38491 -3.0861,-8.41704 L 988.77742,742 H 945.918 903.05859 l -2.7002,5.70775 c -1.48511,3.13926 -4.53579,7.70967 -6.77929,10.15647 l -4.0791,4.44871 10.72153,-0.6452 c 5.89685,-0.35487 26.37185,-0.89179 45.5,-1.19316 z m 118.87967,-8.89909 -3.1012,-7.27207 -1.7965,4.50926 c -0.9881,2.48009 -2.6756,5.74379 -3.75,7.25266 -1.0744,1.50888 -1.9545,2.89894 -1.9558,3.08904 0,0.1901 3.0819,0.19883 6.8513,0.0194 l 6.8535,-0.32622 z m 127.9124,4.84947 c -2.8689,-4.22764 -5.8762,-11.97659 -8.1298,-20.94822 L 1182.7569,729 h -9.4846 c -8.9457,0 -9.597,0.14313 -11.4667,2.51998 -3.8726,4.92329 -6.3804,5.48002 -24.685,5.48002 h -16.9787 l -1.5402,5.2981 c -0.8471,2.91395 -2.8293,7.85387 -4.405,10.9776 l -2.8648,5.6795 17.5841,0.297 c 9.6712,0.16335 28.4829,0.39843 41.8039,0.5224 L 1194.9397,760 Z m -149.2215,-6.20797 c 8.815,-9.20083 9.6434,-37.1135 1.4619,-49.25409 -1.2645,-1.87631 -3.4961,-4.08334 -4.9591,-4.90453 -2.3864,-1.33943 -3.0238,-1.31963 -6.1945,0.19236 -9.6067,4.58112 -13.5737,29.05455 -7.3891,45.58457 4.051,10.82718 11.3204,14.39432 17.0808,8.38169 z m -10.9641,-16.8391 c -2.5268,-3.85642 -2.8618,-13.05551 -0.6329,-17.37788 1.4521,-2.81582 2.3887,-3.5 4.7914,-3.5 2.3222,0 3.3165,0.66739 4.4696,3 2.0522,4.1513 1.877,14.57954 -0.3007,17.90317 -2.2625,3.45296 -6.0559,3.44144 -8.3274,-0.0253 z m 222.5418,10.11766 c 4.8648,-5.54075 6.439,-12.69964 5.915,-26.89912 -0.4696,-12.7235 -1.8697,-17.929 -6.0068,-22.33277 -4.8928,-5.20812 -11.9284,-1.10397 -15.4576,9.01695 -2.782,7.97846 -2.6022,28.52898 0.3046,34.81403 4.3951,9.50266 9.9237,11.46133 15.2448,5.40091 z m -13.323,-15.44387 c -1.4516,-1.60397 -1.6988,-3.3677 -1.3986,-9.97867 0.3079,-6.77893 0.7238,-8.38429 2.6692,-10.30167 l 2.3044,-2.27133 1.9391,2.36078 c 3.6476,4.4408 1.765,22.13922 -2.3549,22.13922 -0.7678,0 -2.1895,-0.87675 -3.1592,-1.94833 z M 1115.5166,704.75 c 0.2496,-0.6875 0.573,-2.825 0.7186,-4.75 l 0.2648,-3.5 -6.5,-0.32713 c -3.575,-0.17993 -10.6625,-0.0254 -15.75,0.34332 l -9.25,0.67046 V 701.59332 706 h 15.0314 c 11.1164,0 15.1496,-0.32557 15.4852,-1.25 z m 69.2951,-37.9591 c 0.1714,-1.4806 -0.182,-3.61425 -0.7852,-4.74145 -1.3171,-2.46103 -1.1991,-2.48116 2.8127,-0.47979 3.4321,1.71219 7.1608,1.12751 7.1608,-1.12286 0,-0.78013 -1.7735,-2.59209 -3.9412,-4.02657 -4.8648,-3.21939 -5.5736,-5.97644 -3.8675,-15.04279 1.2018,-6.38654 1.3173,-6.59193 1.6183,-2.87744 0.1782,2.2 0.6369,4.3204 1.0192,4.712 1.1398,1.16734 14.0347,-1.96451 17.8841,-4.3436 1.9632,-1.21331 7.6834,-6.07212 12.7115,-10.79735 6.6026,-6.20484 11.229,-9.59585 16.655,-12.2076 5.2347,-2.51962 8.9112,-5.17137 12.1235,-8.74427 5.0055,-5.56729 7.3736,-5.92264 8.3893,-1.25888 0.9491,4.35829 1.3002,5.1397 2.309,5.1397 0.5302,0 1.2759,-0.98273 1.6571,-2.18383 0.6763,-2.13076 0.7284,-2.11652 2.1442,0.58552 1.3385,2.55459 1.5862,2.64703 3.1941,1.19188 1.5154,-1.37145 1.9952,-1.39266 3.6733,-0.16236 1.7242,1.2642 2.0596,1.18335 3.1447,-0.75803 0.668,-1.19525 1.2305,-1.62651 1.25,-0.95836 0.019,0.66815 1.0027,1.73249 2.1849,2.36521 2.0527,1.09856 2.1231,0.9875 1.5629,-2.46482 -0.5049,-3.11134 -0.3167,-3.61521 1.3505,-3.61521 2.4094,0 2.4881,-2.09801 0.1853,-4.94179 -1.2327,-1.52231 -3.4503,-2.39385 -7.4839,-2.94122 -3.1526,-0.42782 -6.5982,-1.5617 -7.6568,-2.51972 -2.6291,-2.37926 -4.3277,-6.80019 -3.9343,-10.23978 0.2746,-2.40117 0.726,-2.80589 2.8268,-2.53437 1.375,0.17772 3.325,1.41522 4.3334,2.75 2.5684,3.39984 4.0492,3.08993 3.2934,-0.68929 -0.5737,-2.86827 -0.4444,-3.06406 1.625,-2.46108 4.2347,1.23391 8.7482,1.83905 8.7482,1.17291 0,-0.36632 -0.7367,-1.79038 -1.6371,-3.16459 l -1.6371,-2.49856 4.2485,0.67937 4.2486,0.67938 -0.6909,-3.14563 C 1284.8417,572.00284 1284.8449,572 1289.0949,572 h 4.2537 l -2.2329,-2.37687 -2.233,-2.37688 2.5587,-0.64218 c 1.5966,-0.40074 2.5586,-1.3409 2.5586,-2.50068 0,-5.34307 -9.2159,-5.43503 -15.7831,-0.15748 -4.5717,3.6739 -9.536,5.08923 -15.1907,4.33078 -3.191,-0.428 -4.1017,-1.05446 -4.912,-3.37895 -1.1384,-3.26559 -1.0195,-3.38353 4.3858,-4.35101 4.518,-0.80866 7.5,-3.02686 7.5,-5.57888 0,-1.44895 0.7536,-1.65312 4.75,-1.28688 l 4.75,0.43529 -3.3389,-2.95521 -3.339,-2.9552 4.089,-0.69082 c 2.2489,-0.37996 4.0889,-1.05 4.0889,-1.48899 0,-0.43898 -1.6875,-1.6095 -3.75,-2.60113 l -3.75,-1.80298 3.0343,-0.64054 c 1.6688,-0.3523 3.8774,-1.1124 4.9079,-1.68912 1.678,-0.93906 1.496,-1.18516 -1.743,-2.3564 l -3.6167,-1.30782 2.9587,-1.79933 c 3.838,-2.33399 3.7614,-3.82872 -0.1962,-3.82872 -2.9931,0 -3.0701,-0.0938 -1.5,-1.82874 3.5319,-3.90265 0.8832,-7.50754 -3.9111,-5.32311 -3.0367,1.38362 -6.1282,6.28228 -7.6192,12.07306 -1.6301,6.33106 -8.9049,13.62794 -14.5024,14.5464 -3.8687,0.63479 -4.7689,0.3039 -11.8184,-4.34398 -4.1969,-2.76711 -10.0406,-5.93279 -12.9861,-7.03483 -13.6012,-5.08885 -30.0383,-5.2797 -45.5265,-0.52862 l -9.1979,2.8215 -4.545,-2.41113 c -5.7681,-3.05997 -9.6038,-8.35834 -12.4512,-17.19907 -2.4783,-7.69493 -5.2228,-11.34074 -9.3093,-12.36638 -3.5198,-0.8834 -4.9433,1.23564 -2.9124,4.33522 1.3873,2.1172 1.3373,2.26065 -0.7924,2.27499 -1.2502,0.008 -2.8836,0.40217 -3.6299,0.875 -1.5352,0.97281 -1.2541,1.22136 4.8183,4.25956 3.255,1.62857 3.3382,1.77473 1.0385,1.82394 -3.5486,0.0759 -7,1.11269 -7,2.10268 0,0.46377 1.8388,1.39413 4.0861,2.06746 l 4.0862,1.22424 -3.8328,1.96631 c -3.4168,1.75292 -3.616,2.05089 -1.8361,2.74562 1.0981,0.42862 3.0091,0.81094 4.2466,0.84959 2.9615,0.0925 2.8386,1.01325 -0.5,3.74676 l -2.75,2.2516 5.25,0.036 c 4.3072,0.0295 5.2557,0.35023 5.2818,1.78596 0.046,2.52257 1.9683,4.68827 5.9682,6.7235 4.4026,2.24011 4.153,1.96419 3.4452,3.80871 -0.8648,2.25365 -7.8113,3.15519 -13.0372,1.69202 -2.8247,-0.79085 -6.7201,-3.27727 -10.8595,-6.9314 -6.7169,-5.92962 -13.8476,-9.14375 -15.8479,-7.14345 -0.7378,0.73782 -0.5293,1.63243 0.6961,2.98643 1.6735,1.84924 1.6595,1.96159 -0.3237,2.59101 -2.8114,0.89233 -2.6115,2.34992 0.427,3.11254 3.0229,0.7587 3.1225,1.53733 0.5,3.91064 -2.8738,2.60075 -2.4835,3.5 1.5191,3.5 3.2543,0 3.4718,0.18808 2.8915,2.5 -0.6099,2.43036 -0.4803,2.5 4.6553,2.5 h 5.2827 l -2.3486,2.5 -2.3486,2.5 h 5.6493 5.6493 l -0.6,3 c -0.6964,3.48211 0.1725,3.72016 3.65,1 2.8996,-2.26809 4.8297,-2.44607 7.1764,-0.66177 1.5649,1.18984 1.5567,1.54204 -0.1233,5.2944 -2.3214,5.18511 -5.4873,6.46008 -15.3072,6.16455 -6.7456,-0.203 -8.0296,0.042 -9.8714,1.88387 -2.5185,2.51853 -1.7517,4.31895 1.8395,4.31895 2.4516,0 2.5039,0.10171 0.941,1.82874 -2.4077,2.66045 -2.0707,3.11298 1.845,2.47755 3.0565,-0.49601 3.5,-0.30547 3.5,1.50385 0,2.72554 1.463,3.54179 3.0091,1.67885 1.6804,-2.0247 2.7351,-1.8703 3.4909,0.51101 0.8741,2.75397 2.1701,2.50397 3.8879,-0.75 l 1.4519,-2.75 1.0801,2.8151 c 0.594,1.5483 1.0801,3.26236 1.0801,3.80902 0,2.58231 1.8105,-0.53746 2.3805,-4.10196 0.891,-5.57209 2.9687,-5.12343 5.8973,1.27347 2.9994,6.5515 7.8427,12.17855 13.668,15.8797 5.88,3.73592 2.7805,3.62592 -4.41,-0.15652 l -5.6674,-2.98119 -6.1842,3.12458 c -3.4013,1.71852 -8.4098,3.8822 -11.13,4.80819 l -4.9458,1.68361 0.282,14.923 c 0.1552,8.20765 0.3558,14.98529 0.4458,15.06143 0.09,0.0761 4.7052,0.45709 10.2558,0.84656 l 10.0919,0.70813 2.2685,-6.06574 c 1.2476,-3.33615 2.9081,-6.5966 3.6899,-7.24544 1.2048,-0.99992 1.2642,-0.76609 0.3896,1.53428 -1.5878,4.17601 -1.239,9.05249 1.1347,15.86533 1.1916,3.42015 2.4291,8.24345 2.75,10.71845 0.4847,3.73843 0.9765,4.5557 2.9063,4.82911 1.6846,0.23866 2.476,-0.25627 2.88,-1.8009 0.5214,-1.99382 0.6783,-1.93058 2.4538,0.98906 2.3033,3.78748 5.2037,3.67138 5.655,-0.22637 z m 13.0247,-62.70974 c -9.91,-3.16929 -17.2838,-9.10173 -20.2991,-16.33116 -1.524,-3.65387 -1.5092,-3.75 0.5806,-3.75 1.1796,0 6.0983,1.35748 10.9305,3.01662 10.6343,3.65133 27.9564,5.26553 43.9516,4.09574 5.775,-0.42235 10.6753,-0.63266 10.8894,-0.46735 1.0155,0.78371 -5.4487,7.59846 -9.4093,9.91952 -9.4817,5.55667 -25.4677,7.09082 -36.6437,3.51663 z m 37.7001,-26.04087 c -3.6716,-4.057 1.0234,-10.47312 6.0033,-8.20413 3.1361,1.4289 3.9932,4.70145 2.0201,7.7128 -1.9508,2.97734 -5.5729,3.19914 -8.0234,0.49133 z m -54.9651,-5.61172 c -1.8596,-1.85966 -2.0704,-6.52955 -0.3714,-8.22857 1.7932,-1.79324 6.2656,-1.44801 8.145,0.62874 4.6866,5.17861 -2.8382,12.53521 -7.7736,7.59983 z M 828.42418,666.25 c 0.75027,-3.53848 0.35667,-25.25 -0.45775,-25.25 -0.33979,0 -1.57477,1.01864 -2.74439,2.26365 C 821.54039,647.18258 820,652.40496 820,660.96788 V 669 h 3.92054 c 3.46894,0 3.98772,-0.31677 4.50364,-2.75 z m 402.97852,-6.27746 c -0.053,-1.3599 -0.4491,-3.28588 -0.879,-4.27996 -0.6376,-1.47421 -0.087,-1.33594 2.9868,0.75 4.2144,2.85998 6.6983,3.21564 8.3722,1.19879 0.8612,-1.03767 0.6494,-1.96651 -0.8965,-3.93176 l -2.024,-2.57312 2.6918,-0.31824 c 4.561,-0.53925 3.8182,-2.63337 -1.8277,-5.15274 -5.9212,-2.64221 -7.993,-4.59515 -10.6334,-10.02355 l -1.7917,-3.6836 -5.4506,3.80242 c -3.052,2.12913 -5.5809,4.6998 -5.7467,5.84164 -0.1628,1.12156 1.237,4.26785 3.1107,6.99175 1.8737,2.72389 3.713,5.91742 4.0873,7.09672 1.9954,6.28683 8.2106,9.61293 8.0008,4.28165 z M 892.87959,573.64509 c 1.14955,-1.38513 11.60704,-41.51412 10.97117,-42.1002 -0.19292,-0.17781 -2.92134,0.14902 -6.06316,0.7263 l -5.7124,1.04959 -1.10349,5.58961 c -0.60691,3.07429 -2.84856,11.80617 -4.98143,19.40418 -2.13288,7.59802 -3.63008,14.46052 -3.32713,15.25 0.71838,1.87207 8.67753,1.93479 10.21644,0.0805 z M 880.8338,553.86384 c 1.05653,-4.05011 2.24069,-9.27634 2.63148,-11.61384 0.69972,-4.18542 0.6665,-4.25 -2.18625,-4.25 -5.47666,0 -5.85982,1.13063 -5.42223,16 0.44395,15.08537 1.01028,15.06987 4.977,-0.13616 z m -32.43414,119.70822 c -1.70519,-0.74231 -3.39269,-2.1115 -3.75,-3.04265 C 844.29235,669.59827 844,658.32332 844,645.47398 c 0,-23.25074 0.0115,-23.37587 2.41208,-26.16822 l 2.41209,-2.80576 40.83791,-0.61554 c 23.22154,-0.35001 41.58294,-0.23228 42.565,0.27292 3.23725,1.66533 3.74477,4.16393 2.73379,13.45881 -0.53146,4.8861 -1.6404,15.63381 -2.46432,23.88381 -1.6012,16.03292 -2.79808,19.28696 -7.5867,20.62652 -1.32542,0.37076 -18.38485,0.70136 -37.90985,0.73466 -27.70671,0.0472 -36.18062,-0.23575 -38.60034,-1.28912 z m 96.63552,-3.50632 c -1.75156,-3.27283 -1.17664,-5.062 6.76914,-21.06574 5.61958,-11.31848 8.37225,-15.82064 10.2036,-16.68854 1.37936,-0.6537 9.27238,-1.50353 17.54005,-1.88853 13.42971,-0.62536 15.2144,-0.5177 16.74208,1.00997 0.94047,0.94048 1.70995,2.39993 1.70995,3.24324 0,2.15565 -8.00966,31.39642 -9.26506,33.82386 -0.56889,1.1 -1.52948,2.33061 -2.13464,2.73469 -0.60517,0.40408 -9.97197,0.74158 -20.81512,0.75 -18.47653,0.0144 -19.77983,-0.10618 -20.75,-1.91895 z m 36.85521,-6.97684 c 0.77254,-0.48921 2.22787,-5.23241 3.27503,-10.67394 2.43385,-12.64744 2.31529,-12.79529 -9.11201,-11.36243 -4.60749,0.57773 -9.2091,1.49561 -10.22578,2.03972 -2.18136,1.16743 -11.16073,18.55976 -10.30061,19.95147 0.74147,1.19972 24.47595,1.2404 26.36337,0.0452 z M 1068.5,626.29964 c -2.74,-0.64166 -4.5,-3.14824 -4.5,-6.40898 0,-5.60595 0.4897,-5.89066 10.1317,-5.89066 8.7725,0 8.9346,0.0441 9.9463,2.70513 0.5657,1.48783 0.74,4.41283 0.3873,6.5 l -0.6411,3.79487 -6.6621,-0.116 c -3.6642,-0.0638 -7.5621,-0.32676 -8.6621,-0.58436 z m 250.5278,-21.54812 0.5279,-20.25152 4.2453,-9.48348 c 24.3797,-54.46134 27.2641,-123.35927 7.6982,-183.88262 -12.7627,-39.47888 -32.2659,-71.59632 -61.9354,-101.99364 -18.3685,-18.8191 -38.4378,-34.19969 -61.5638,-47.18076 -5.225,-2.9329 -9.6203,-5.40642 -9.7674,-5.49671 -0.2354,-0.14454 5.7735,-17.4812 6.3329,-18.27144 0.3338,-0.4716 17.8215,9.36865 27.9345,15.7186 71.6918,45.01543 118.9271,120.29945 129.6202,206.59005 1.6848,13.59603 1.6921,52.36178 0.012,65.5 -3.986,31.17657 -13.2933,63.05568 -25.8381,88.5 -4.3869,8.89785 -16.6342,30.49713 -17.2945,30.50049 -0.275,10e-4 -0.2625,-9.11063 0.028,-20.24897 z M 1047.3396,577.4427 c -1.149,-2.99445 8.6722,-49.91077 10.9014,-52.07633 0.9928,-0.96436 3.5787,-0.91692 12.228,0.22433 6.033,0.79604 11.3288,1.80712 11.7685,2.24685 0.4398,0.43973 0.6787,11.56867 0.531,24.73098 L 1082.5,576.5 l -8,0.62578 c -25.893,2.02543 -26.502,2.03254 -27.1604,0.31692 z m -709.08893,-4.92448 c -15.7023,-4.41781 -26.04913,-15.07651 -29.70939,-30.60485 -6.58666,-27.94344 9.08433,-53.26839 35.20872,-56.89868 9.0353,-1.25556 19.63461,0.0991 26.93863,3.44304 10.7136,4.90485 19.63247,16.33982 22.3304,28.63004 1.81269,8.25757 0.83404,24.02028 -1.93487,31.16432 -4.29358,11.07779 -13.63861,19.9735 -24.53892,23.35906 -7.26329,2.25592 -21.83945,2.72321 -28.29457,0.90707 z m 22.24593,-20.43507 c 6.40388,-3.61435 9.48901,-11.15269 9.49782,-23.20742 0.0117,-15.94003 -6.88821,-24.88067 -19.19476,-24.87199 -12.08289,0.009 -19.11042,9.14159 -19.23361,24.99626 -0.0462,5.94937 0.47856,9.91137 1.74886,13.2034 1.92605,4.99141 7.2474,10.45355 10.95343,11.24322 1.22741,0.26153 3.13166,0.66455 4.23166,0.89561 3.11253,0.65378 8.69979,-0.39836 11.9966,-2.25908 z m 214.60803,20.39694 C 558.175,567.731 548.51776,556.03278 546.00454,537.22992 c -2.9523,-22.08785 5.61618,-40.47795 22.55256,-48.40344 19.21124,-8.99002 44.78423,-3.39558 54.49854,11.9223 5.88633,9.28179 7.30379,14.61386 7.37725,27.75122 0.0561,10.02814 -0.30679,13.06809 -2.20831,18.5 -4.15987,11.88317 -11.6841,19.73742 -23.07976,24.09208 -7.43198,2.84 -22.39887,3.53155 -30.04019,1.38801 z m 22.09368,-20.09729 c 3.4352,-1.75776 7.20381,-6.79006 8.79003,-11.73749 1.95147,-6.08667 0.90697,-22.15776 -1.77503,-27.3111 -2.9728,-5.7121 -7.33922,-8.59718 -13.82549,-9.13507 -6.71281,-0.55668 -9.4581,0.14768 -13.3546,3.42636 -5.83754,4.91197 -7.47913,9.58556 -7.50774,21.3745 -0.0236,9.7407 0.18421,10.87843 2.87425,15.7331 3.07252,5.54493 6.14552,8.14082 11.07935,9.3592 3.73642,0.92268 10.13278,0.12566 13.71923,-1.7095 z m 68.51919,20.56927 c -5.55418,-1.37195 -9.04276,-3.41955 -12.4632,-7.31522 -5.13165,-5.84463 -5.58776,-8.7689 -5.67476,-36.38329 L 647.5,504.00712 641.75,504.00356 636,504 v -9 -9 h 5.46826 5.46827 L 647.21826,474.25 647.5,462.5 h 11.5 11.5 l 0.28174,11.75 0.28173,11.75 H 679.53174 688 v 9 9 h -8.5 -8.5 l 0.006,19.75 c 0.003,10.8625 0.47539,21.44176 1.04961,23.50946 1.4204,5.11468 4.53616,6.96416 11.13711,6.61086 l 5.3077,-0.28407 0.29125,8.86562 c 0.16018,4.8761 -0.0648,9.19896 -0.5,9.60635 -1.30256,1.21939 -18.49916,1.90032 -22.57375,0.89385 z m 58.38713,-0.53459 c -14.86423,-3.99722 -25.70224,-15.04412 -29.06584,-29.62607 -0.54444,-2.36028 -1.0009,-8.40651 -1.01434,-13.43607 -0.0659,-24.64011 13.87367,-41.38836 36.8485,-44.27318 C 759.82228,481.44716 780,499.69068 780,529.5 c 0,27.6715 -16.78468,44.69951 -43.79922,44.43419 -3.68543,-0.0362 -9.1287,-0.71872 -12.09615,-1.51671 z m 22.30512,-20.22478 c 6.41986,-3.7494 9.57559,-11.24346 9.58467,-22.7612 0.013,-16.47858 -6.67018,-25.42402 -18.99442,-25.42402 -12.36087,0 -19.19602,9.11732 -19.11054,25.49128 0.0488,9.35027 1.54953,14.53101 5.52639,19.07818 5.55035,6.34631 15.61002,7.92818 22.9939,3.61576 z m -454.94496,20.02977 -13.03522,-0.27753 -7.86976,-12.97247 C 266.23144,551.83761 262.55468,546 262.38924,546 c -0.16544,0 -3.78397,5.85 -8.04118,13 l -7.74039,13 h -12.36285 c -9.62383,0 -12.1966,-0.27694 -11.61245,-1.25 0.41272,-0.6875 6.7327,-10.38017 14.0444,-21.53926 l 13.29401,-20.28926 -13.98539,-20.94336 C 228.29342,496.45927 222,486.80194 222,486.51738 222,486.23282 228.01666,486 235.37035,486 h 13.37034 l 7.51303,13.09322 c 5.2757,9.19415 7.7711,12.69931 8.37965,11.77047 0.47665,-0.72752 3.79624,-6.50697 7.37687,-12.84322 l 6.51025,-11.52047 12.85855,-0.28076 c 10.95513,-0.23921 12.77538,-0.064 12.29669,1.18341 -0.30902,0.80529 -6.43748,10.26074 -13.61879,21.01211 C 282.87562,519.16612 277,528.23982 277,528.57854 c 0,0.33871 6.22226,9.68461 13.82724,20.76865 16.02591,23.35731 15.43307,22.4198 14.43907,22.83371 -0.42147,0.17551 -6.63216,0.19421 -13.80152,0.0416 z m 216.95145,-0.13914 c -0.22893,-0.22916 -0.44795,-16.87916 -0.4867,-37 -0.0614,-31.88169 -0.24459,-36.13352 -1.42533,-33.08333 -0.74517,1.925 -6.92997,16.325 -13.744,32 l -12.38914,28.5 h -9.26231 -9.26231 L 448.17323,530.56001 434.5,498.62003 434.23768,535.31001 433.97536,572 h -11.9958 -11.99581 l 0.25813,-57.75 0.25812,-57.75 14.5,-0.25751 14.5,-0.25751 3.88876,9.75751 c 15.25194,38.26955 28.02991,68.24106 28.60536,67.09564 0.36975,-0.73597 7.59885,-18.32563 16.06468,-39.08813 L 503.45121,456 h 14.28245 14.28246 l -0.25806,58.06995 -0.25806,58.06994 -11.33376,0.18006 c -6.23356,0.099 -11.52106,-0.007 -11.75,-0.23662 z M 112,571.58809 c 0,-0.48893 32.96748,-97.83395 36.69948,-108.3647 l 2.57875,-7.27661 13.9819,0.27661 13.9819,0.27661 16.35711,46.5 c 8.9964,25.575 18.14968,51.5625 20.34062,57.75 l 3.98352,11.25 h -13.37992 -13.37991 l -3.74546,-12 -3.74545,-12 h -20.26888 c -18.44354,0 -20.31463,0.1576 -20.77681,1.75 -0.27936,0.9625 -1.91963,6.3625 -3.64504,12 L 137.84469,572 H 124.92235 C 117.81506,572 112,571.81464 112,571.58809 Z m 60.0994,-66.12362 C 168.46973,493.67735 165.275,484.0323 165,484.03102 c -0.39882,-0.002 -10.50578,33.27251 -12.59605,41.46898 -0.4939,1.93672 -0.086,1.99044 12.8924,1.6978 l 13.40245,-0.3022 z M 791,529.03174 V 486 h 10.36916 10.36916 l 0.61983,3.75 c 0.34091,2.0625 0.64839,5.55 0.6833,7.75 l 0.0634,4 1.66973,-2.5 c 5.9461,-8.90278 18.19951,-15.47294 25.4688,-13.65613 2.20164,0.55026 2.2444,0.81464 1.75657,10.86006 l -0.5,10.29607 -3,0.29773 c -9.42745,0.9356 -18.42182,5.71982 -21.78821,11.58941 C 815.88987,519.82023 815.33914,528.70409 815,546 l -0.5,25.5 -11.75,0.28174 -11.75,0.28173 z M 780.54115,447.75 c 8.11331,-79.17367 44.22848,-146.55207 104.84094,-195.59688 16.02712,-12.96841 50.22907,-35.0508 51.70396,-33.38251 1.72382,1.94987 6.9241,17.72601 5.95004,18.05069 -2.83721,0.94574 -23.68832,14.20869 -33.03609,21.01356 -52.91363,38.51939 -87.2047,88.66783 -103.02355,150.66514 -3.31743,13.00168 -4.87737,21.55024 -7.5273,41.25 l -0.5717,4.25 h -9.48838 -9.48838 z M 985.5,435.628 C 973.97663,432.79344 965.22155,425.6761 960.12539,415 L 957.5,409.5 957.21965,349.61031 c -0.30864,-65.93362 -0.33766,-65.56009 5.81493,-74.8488 3.4541,-5.21474 10.11452,-10.44935 16.96542,-13.33359 3.99781,-1.68308 7.76425,-1.93183 33.75,-2.22895 L 1043,258.86452 V 247.43226 236 l -25.75,-0.022 c -22.90222,-0.0195 -26.20107,-0.22683 -29.8286,-1.87437 -8.7664,-3.9815 -10.78197,-9.79242 -10.26697,-29.59986 0.40796,-15.69046 1.52592,-19.02398 7.79752,-23.25041 l 3.34382,-2.2534 h 82.40173 c 91.3158,0 85.5899,-0.41953 91.0008,6.66748 2.7747,3.63424 2.8045,3.8293 3.0949,20.25105 0.2762,15.62336 0.1606,16.84149 -2,21.08147 -1.6737,3.28431 -3.4986,5.10784 -6.7551,6.75 -4.302,2.16936 -5.4399,2.25 -31.75,2.25 H 1097 v 11.43402 11.43402 l 30.25,0.33746 c 28.7434,0.32066 30.534,0.45114 35.9516,2.61973 11.1656,4.46942 19.4631,14.63453 21.7739,26.67477 0.8095,4.21812 1.0584,22.93474 0.838,63.023 l -0.3135,57.02301 -3.2741,6.64869 c -4.0559,8.23625 -11.9591,15.74603 -19.9792,18.9847 l -5.7467,2.3206 -83,0.17896 c -62.8167,0.13544 -84.21586,-0.12012 -88,-1.05096 z m 102.8306,-19.25035 c 22.7568,-5.75374 41.6601,-23.26463 49.1453,-45.52542 3.716,-11.05122 4.5537,-26.12668 2.0718,-37.28265 -3.2141,-14.44676 -12.9433,-30.099 -24.3059,-39.10328 -25.7513,-20.40656 -61.1775,-20.55178 -86.5224,-0.35467 -26.3456,20.99447 -33.92074,55.04615 -19.08,85.76758 3.7487,7.75997 5.9405,10.78119 12.6958,17.5 9.1074,9.05827 16.0731,13.57214 26.5865,17.22832 13.0103,4.52454 26.1759,5.1159 39.4089,1.77012 z m -26.9686,-16.87151 c -19.4336,-4.22626 -35.3697,-19.71562 -39.8544,-38.73698 -4.3675,-18.52469 1.1071,-36.59538 15.0326,-49.61983 10.5475,-9.8651 21.293,-14.14933 35.4884,-14.14933 14.1227,0 26.3046,5.35446 36.2421,15.9299 10.4332,11.10291 14.7401,21.64672 14.7174,36.0302 -0.023,14.33091 -4.8236,25.87541 -14.9881,36.0399 -7.5803,7.58032 -16.295,12.34638 -26.5,14.4929 -8.4085,1.76864 -12.0552,1.77104 -20.138,0.0132 z m 22.8394,-22.37817 c 6.8496,-2.93607 12.1163,-8.21625 15.3234,-15.3626 9.4508,-21.05919 -5.2106,-44.21017 -28.0248,-44.25241 -8.966,-0.0166 -16.4836,3.45046 -22.8606,10.5432 -15.018,16.70363 -7.2735,43.37185 14.6848,50.56694 5.3841,1.76422 14.856,1.08589 20.8772,-1.49513 z M 1065.3043,360.044 c -9.0246,-5.50264 -9.1761,-16.88474 -0.3043,-22.86237 6.378,-4.29739 14.6147,-1.6314 18.595,6.01871 4.232,8.13372 -2.7229,18.80842 -12.2461,18.79592 -1.5669,-0.002 -4.2869,-0.88057 -6.0446,-1.95226 z"
       id="path1" />
  </g>
</svg>
