<?xml version="1.0" encoding="UTF-8" standalone="no"?>
<!-- Created with Inkscape (http://www.inkscape.org/) -->

<svg
   version="1.1"
   id="svg1"
   width="1024"
   height="1024"
   viewBox="0 0 1024 1024"
   sodipodi:docname="logo.png"
   xmlns:inkscape="http://www.inkscape.org/namespaces/inkscape"
   xmlns:sodipodi="http://sodipodi.sourceforge.net/DTD/sodipodi-0.dtd"
   xmlns="http://www.w3.org/2000/svg"
   xmlns:svg="http://www.w3.org/2000/svg">
  <defs
     id="defs1" />
  <sodipodi:namedview
     id="namedview1"
     pagecolor="#ffffff"
     bordercolor="#000000"
     borderopacity="0.25"
     inkscape:showpageshadow="2"
     inkscape:pageopacity="0.0"
     inkscape:pagecheckerboard="0"
     inkscape:deskcolor="#d1d1d1">
    <inkscape:page
       x="0"
       y="0"
       width="1024"
       height="1024"
       id="page2"
       margin="0"
       bleed="0" />
  </sodipodi:namedview>
  <g
     inkscape:groupmode="layer"
     inkscape:label="Image"
     id="g1">
    <path
       style="fill:#10252b;fill-opacity:1"
       d="M 365.31423,892.90057 C 353.47204,890.92382 340.11471,881.16795 335.1708,870.88453 332.53018,865.392 330.03473,854.27314 330.03473,848 c 0,-6.72252 2.46822,-17.08561 5.48931,-23.04744 3.31935,-6.55043 11.50671,-14.84705 17.47596,-17.70918 14.02307,-6.72379 32.18928,-6.77892 45.20811,-0.13721 17.34869,8.85064 26.72398,32.3773 21.2607,53.35228 -6.27087,24.07548 -27.62831,36.86998 -54.15458,32.44212 z m 19.76409,-20.17437 c 7.17674,-4.8364 9.91053,-11.65703 9.91053,-24.7262 0,-9.66423 -1.0366,-14.30547 -4.24931,-19.02568 -3.53753,-5.19748 -6.8309,-7.0846 -13.33644,-7.64188 -12.84936,-1.10068 -20.40411,7.65595 -21.21367,24.58857 -0.67757,14.17204 3.42781,24.26047 11.26099,27.67239 5.05186,2.20046 13.70769,1.77463 17.6279,-0.8672 z M 614,892.63759 C 593.11173,888.09992 580.48308,871.01704 580.6317,847.5 580.78592,823.09581 595.25268,806.03132 618.64454,802.66138 648.05025,798.42506 671,818.29901 671,848 c 0,22.87252 -13.35972,40.00222 -34.73019,44.53072 -8.04153,1.70403 -14.76896,1.73632 -22.26981,0.10687 z m 19.93054,-19.10167 c 7.24326,-3.74564 11.07303,-12.73427 11.06388,-25.96742 -0.006,-9.24833 -1.07636,-13.92419 -4.25488,-18.59418 -3.62107,-5.32022 -7.08046,-7.30311 -13.4761,-7.72439 -12.97204,-0.85445 -20.15863,7.41832 -21.03731,24.21687 -0.76132,14.55509 3.27236,24.66296 11.22429,28.1266 4.09132,1.78207 12.9828,1.75105 16.48012,-0.0575 z M 712.5,893.38394 c -6.38413,-1.64156 -9.16201,-2.98723 -12.62499,-6.11583 C 693.63664,881.63212 693,877.93269 693,847.3185 V 821 h -7.5 -7.5 v -8.5 -8.5 h 7.5 7.5 v -11 -11 h 12 12 v 11 11 h 9.5 9.5 v 8.5 8.5 h -9.5 -9.5 v 23.03212 c 0,25.54817 0.68334,29.34833 5.4945,30.55586 2.72919,0.68498 8.72363,0.12588 11.7555,-1.09644 1.58938,-0.64076 1.75,0.12139 1.75,8.30365 v 9.00916 l -3.25,1.1411 c -3.62776,1.27374 -17.15393,2.23459 -20.25,1.43849 z m 64.75116,-0.9004 C 756.99523,888.08327 744,870.83073 744,848.33912 c 0,-14.13629 3.5693,-23.83138 12.09082,-32.84163 5.88773,-6.22541 12.38857,-9.92735 20.99581,-11.95621 28.34522,-6.68137 52.01239,9.03915 56.12892,37.28268 3.00843,20.64084 -5.94032,39.51944 -22.60699,47.69253 -11.2076,5.49604 -20.9729,6.65738 -33.3574,3.96705 z m 19.07765,-18.84757 C 803.76956,870.52703 808,861.23479 808,848 c 0,-13.49391 -3.68306,-21.58909 -11.4214,-25.10367 -5.1966,-2.36017 -10.96767,-2.35693 -16.17753,0.009 -7.56078,3.4337 -11.40107,11.87885 -11.40107,25.072 0,13.08749 4.18584,22.45172 11.45042,25.61597 3.98976,1.73783 11.77114,1.75869 15.87839,0.0426 z M 121.4801,890.25 c 0.75909,-1.91394 26.0492,-71.657 35.72687,-98.52476 l 6.04222,-16.77476 15.58832,0.27476 15.58832,0.27476 6.2178,17 c 3.41979,9.35 12.93143,35.5625 21.13697,58.25 L 236.69978,892 H 223.47154 210.2433 l -4.32855,-12.51761 -4.32856,-12.51761 -23.47474,0.26761 -23.47473,0.26761 -4.03838,12.25 -4.03838,12.25 h -12.88697 c -11.87104,0 -12.83225,-0.13796 -12.19289,-1.75 z m 72.2741,-45.5 c -0.25287,-0.6875 -3.72283,-11.06568 -7.71102,-23.06263 -3.98818,-11.99695 -7.41867,-21.64522 -7.62329,-21.44059 C 177.86468,800.80198 163,844.02899 163,845.08834 163,845.59828 169.87724,846 178.60699,846 c 12.06414,0 15.50262,-0.28376 15.14721,-1.25 z m 48.52046,42.5 c 3.56957,-4.92176 25.77412,-36.89787 26.98845,-38.86526 0.38108,-0.61739 -5.99697,-10.58121 -14.28737,-22.3198 C 246.73908,814.40244 240,804.66681 240,804.4302 c 0,-0.23661 6.1875,-0.42159 13.75,-0.41106 l 13.75,0.0191 7.91756,12.02539 c 4.35465,6.61397 8.23495,12.22156 8.62287,12.46131 0.38793,0.23975 4.42556,-5.18029 8.97252,-12.04454 L 301.28015,804 h 12.90962 c 10.60086,0 12.76659,0.24285 12.10992,1.35793 -0.43983,0.74686 -7.09969,10.28346 -14.79969,21.19243 -7.7,10.90898 -13.8994,20.16221 -13.77645,20.56273 0.12296,0.40053 6.98546,10.48718 15.25,22.41478 C 321.2381,881.45546 328,891.39116 328,891.6072 c 0,0.21604 -6.1875,0.37088 -13.75,0.34409 l -13.75,-0.0487 -8.48948,-13.45128 c -4.66921,-7.39821 -8.71921,-13.44205 -9,-13.43076 -0.28078,0.0113 -4.56052,6.06815 -9.51052,13.45969 l -9,13.43917 -12.83517,0.0403 L 238.82966,892 Z m 192.4592,-54 c 0.12862,-32.3125 0.46612,-58.6375 0.75,-58.5 0.28388,0.1375 8.55885,0.25 18.38883,0.25 h 17.87269 l 9.73527,28.25 c 5.3544,15.5375 11.59919,33.97203 13.87731,40.96562 3.61861,11.10874 5.64204,15.30845 5.64204,11.71027 0,-0.83169 24.51776,-71.32142 27.52406,-79.13295 0.57946,-1.50567 2.77,-1.74162 18.56764,-2 L 565.00238,774.5 565.00119,833.25 565,892 h -12.55923 -12.55922 l 0.30922,-42.52653 c 0.17008,-23.38959 0.006,-41.72709 -0.36395,-40.75 -0.37026,0.97709 -3.37881,9.42653 -6.68567,18.77653 -3.30687,9.35 -9.64144,27.25066 -14.07682,39.77925 -4.43538,12.52859 -8.06433,23.21609 -8.06433,23.75 0,0.5687 -4.45233,0.96253 -10.75,0.95089 l -10.75,-0.0199 -11.96468,-33.23015 c -6.58057,-18.27657 -13.33057,-37.16717 -15,-41.97909 -1.66943,-4.81193 -3.26032,-8.74957 -3.53532,-8.75032 -0.275,-7.5e-4 -0.37789,18.89877 -0.22864,41.99895 L 459.04271,892 H 446.77136 L 434.5,892.00001 Z M 847,848.06054 v -43.93946 l 11.50196,-0.31054 11.50197,-0.31054 0.11303,10.5 c 0.0753,6.99262 0.34894,9.33087 0.81927,7 2.24163,-11.1093 12.72599,-19 25.24527,-19 H 900 v 11.39251 11.39251 l -6.05549,0.0852 c -10.17291,0.1432 -16.87839,4.25225 -20.63252,12.64339 -1.52427,3.40701 -1.83288,7.65598 -2.12352,29.23635 L 870.8484,892 H 858.9242 847 Z M 431.5,715.32598 c -31.30919,-0.41581 -92.75012,-2.41881 -118,-3.84684 -25.88962,-1.46422 -38.83914,-2.85919 -43.36807,-4.67179 l -2.63193,-1.05337 3.11925,-1.3265 C 273.98764,702.99501 290.8598,701 299.60595,701 302.57268,701 305,700.79303 305,700.54007 c 0,-0.25296 -2.23112,-2.54687 -4.95804,-5.09759 -5.79048,-5.41631 -8.68595,-10.87544 -10.26136,-19.34682 L 288.64699,670 h -7.35561 c -8.65822,0 -13.97267,-1.86275 -14.79034,-5.1841 -0.31357,-1.27375 -0.44209,-10.396 -0.28559,-20.27168 L 266.5,626.58844 269,626.00078 c 2.46912,-0.58039 2.50347,-0.73167 2.78132,-12.24627 0.30112,-12.47923 0.23297,-12.31195 6.62273,-16.25451 1.30931,-0.80786 1.78819,-3.89413 2.49233,-16.06246 0.70588,-12.19826 1.27422,-15.85163 2.98888,-19.21263 2.84663,-5.57985 9.69343,-14.01931 19.36727,-23.87235 7.60615,-7.74704 7.89478,-8.20335 5.87336,-9.28518 C 307.08731,527.97636 307,527.2384 307,511.09967 c 0,-14.87426 0.21576,-17.10708 1.85677,-19.21481 1.02122,-1.31167 2.78106,-4.48876 3.91075,-7.0602 2.20352,-5.01575 2.90708,-5.30966 14.54067,-6.07435 3.61943,-0.2379 3.92082,-0.52826 6.08047,-5.85785 1.24975,-3.08415 3.2397,-6.96617 4.42211,-8.62672 4.37041,-6.13767 2.93562,-5.99735 69.4258,-6.78964 55.46819,-0.66095 60.95458,-0.58087 63.25,0.92314 1.67057,1.0946 2.51184,2.56133 2.50869,4.37381 -0.004,2.28992 -9.33879,42.81424 -13.14221,57.053 -2.05121,7.67907 -1.59244,7.58657 -41.30895,8.32932 -19.27426,0.36045 -46.7441,0.70046 -61.0441,0.75557 -15.56412,0.06 -27.60552,0.54351 -30,1.20465 -3.03898,0.8391 -6.42105,3.54062 -14.07702,11.24443 -5.54237,5.57699 -12.29237,13.27815 -15,17.11369 L 293.5,565.44743 293.18713,584.447 c -0.18831,11.43606 -0.73467,19.50782 -1.37244,20.27629 C 291.23192,605.42548 289.04235,606 286.94898,606 281.14328,606 280,607.81182 280,617.01241 c 0,4.34401 0.46358,8.15606 1.03478,8.50908 0.56913,0.35174 38.06169,0.3114 83.31681,-0.0897 l 82.28203,-0.72918 1.73593,-6.73872 c 2.08758,-8.10376 6.40631,-15.24704 10.85977,-17.96233 2.95213,-1.79991 5.05259,-1.9945 21.56613,-1.99787 17.78883,-0.004 18.3595,0.0603 20.60803,2.30883 2.44483,2.44483 5.97935,10.88073 7.13104,17.01976 L 509.22258,621 H 522.11129 535 v -80.6 -80.6 l -3.3104,-3.3104 c -4.85599,-4.85599 -5.46084,-4.96864 -42.1896,-7.85751 -4.31823,-0.33965 -70.87546,0.86106 -102.25,1.84462 L 368,451.08017 v -13.47499 c 0,-7.41124 0.42991,-14.60574 0.95537,-15.98778 2.05729,-5.41109 2.47172,-5.48745 63.29712,-11.66256 31.48613,-3.19652 65.65468,-6.74404 75.93012,-7.88335 32.38304,-3.59057 34.74762,-3.4009 80.62275,6.46676 21.83205,4.69604 61.74464,13.27774 88.69464,19.07046 63.30584,13.60716 64.69731,13.94065 66.08497,15.83838 0.85659,1.17146 1.36289,20.61015 1.87084,71.82951 0.38304,38.62287 0.54968,76.2984 0.37031,83.7234 l -0.32612,13.5 -10.7101,0.28343 -10.7101,0.28342 -0.2899,8.21658 -0.2899,8.21657 -8.25,0.29044 -8.25,0.29044 V 645.04044 660 h 5.55226 5.55226 l -0.30226,5.25 -0.30226,5.25 -8.13131,0.87574 -8.13131,0.87574 -0.59294,4.32599 c -0.91745,6.6935 -4.32922,15.4468 -7.61373,19.53394 l -2.97813,3.70588 9.72371,0.64911 c 25.16172,1.67966 35.70793,3.44938 33.53065,5.62666 -6.63574,6.63574 -155.18469,11.18017 -301.80694,9.23292 z m -20.8362,-16.94076 23.16381,-0.60362 -2.39424,-4.50294 c -1.31683,-2.47661 -2.67702,-6.6347 -3.02266,-9.2402 l -0.62842,-4.73726 -14.14114,-0.64694 c -7.77763,-0.35582 -22.7474,-0.64859 -33.26615,-0.6506 L 361.25,678 l -0.63016,3.1508 c -1.00485,5.02424 -4.79257,11.79368 -8.34338,14.91133 -1.80205,1.58222 -3.27646,3.02027 -3.27646,3.19566 0,0.38162 29.61653,-0.0375 61.6638,-0.87257 z m 215.44593,-2.91302 c -4.34448,-4.9481 -6.9222,-10.39647 -8.75179,-18.49815 L 615.783,670 h -6.98121 c -6.03385,0 -7.22818,0.30533 -8.80117,2.25 -1.75357,2.16791 -2.50962,2.26126 -20.72235,2.55871 l -18.90237,0.30871 -1.18752,5.74941 c -0.65314,3.16217 -2.72423,8.30136 -4.60244,11.42043 l -3.41491,5.67103 19.66448,0.29325 c 10.81547,0.16128 28.37361,0.39566 39.01808,0.52085 L 629.20718,699 Z M 510.0484,695.06797 c -1.14828,-1.61261 -2.73631,-4.42511 -3.52895,-6.25 -0.79264,-1.82488 -1.45878,-2.61857 -1.48031,-1.76375 -0.0215,0.85482 -1.37923,3.66732 -3.01712,6.25 L 499.04405,698 h 6.54607 6.54607 z m 172.25701,-4.83573 c 12.54821,-11.91367 12.6483,-43.42337 0.17783,-55.98224 -5.73409,-5.77474 -10.06302,-5.91486 -15.44749,-0.5 -13.49169,13.56782 -10.5398,52.79741 4.46425,59.32836 3.10464,1.35138 7.64355,0.15584 10.80541,-2.84612 z M 670.31284,675.75 c -5.89955,-6.5203 -5.7648,-22.15842 0.23953,-27.7992 2.39382,-2.24888 2.7259,-2.30528 5.25152,-0.892 3.36416,1.88252 5.06826,6.67583 5.13409,14.4412 0.0651,7.68151 -1.43671,13.03549 -4.19935,14.97052 -2.93454,2.05543 -4.02473,1.93319 -6.42579,-0.72052 z m -184.30207,15.74443 c 6.29451,-3.25502 11.2051,-16.11681 11.26088,-29.49443 0.0754,-18.07909 -7.83894,-32.9831 -17.52165,-32.99626 -3.83016,-0.005 -10.02519,6.42669 -12.13952,12.60367 -4.42268,12.92082 -4.00521,29.30632 1.03268,40.53225 4.33208,9.65315 10.43441,12.94007 17.36761,9.35477 z m -7.72069,-14.58282 c -3.8339,-1.41826 -5.76066,-6.55916 -5.77611,-15.41161 -0.0109,-6.2347 0.42513,-8.72624 1.97595,-11.29117 6.06388,-10.02912 13.84636,-0.39526 12.23475,15.14529 -0.9241,8.91094 -4.04152,13.18259 -8.43459,11.55749 z m 60.90481,-27.66147 C 539.02708,644.43757 538.7037,639.9375 538.47627,639.25 538.17348,638.33466 534.55581,638 524.964,638 c -12.00456,0 -13.05575,0.14619 -12.58374,1.75 0.28327,0.9625 1.06645,5.4625 1.7404,10 l 1.22538,8.25 12.07698,1.4e-4 12.07698,1.5e-4 z M 606,592.5 c 0.68469,-0.825 1.81664,-1.5 2.51546,-1.5 0.69881,0 1.52958,0.675 1.84617,1.5 0.94654,2.46665 2.39843,1.69565 1.88312,-1 -0.55985,-2.92867 2.06651,-3.55313 3.57875,-0.85091 0.72681,1.29875 1.01134,0.89132 1.33929,-1.91779 0.35908,-3.07574 -0.0369,-3.92859 -2.87559,-6.19365 C 610.91763,579.84901 607,573.35714 607,570.4621 c 0,-0.9572 1.32682,0.1034 3.25,2.59791 l 3.25,4.21548 12,-0.16771 c 12.38557,-0.1731 26.52915,-1.52219 32.29343,-3.08031 3.10253,-0.83864 3.46528,-0.65301 6.25821,3.20251 1.63062,2.25101 3.49634,5.86698 4.14604,8.03548 1.37045,4.57417 3.51804,5.8438 5.43964,3.21586 1.2987,-1.77608 1.43318,-1.76371 3.66984,0.33752 2.96779,2.78809 5.17674,2.95384 3.74634,0.28112 -0.78371,-1.46438 -0.64807,-2.04156 0.59156,-2.51725 0.88464,-0.33947 2.2264,-0.10435 2.98169,0.52248 1.11847,0.92825 1.37325,0.50982 1.37325,-2.25534 0,-2.84434 -0.55907,-3.69612 -3.44661,-5.25116 -4.65036,-2.50439 -7.08688,-5.26123 -10.32945,-11.68741 L 669.49348,562.5 653.49674,561.88667 c -22.2413,-0.85275 -33.19206,-4.68524 -44.67006,-15.6334 l -5.79382,-5.52636 -6.74667,5.88654 c -16.05093,14.00463 -20.59062,18.85201 -19.84766,21.19287 0.96531,3.04142 5.78705,5.31311 12.58576,5.9296 5.51344,0.49994 5.76539,0.65181 7.6985,4.64047 1.09919,2.26798 2.7488,6.71111 3.6658,9.87361 1.69489,5.84522 3.28684,7.05094 5.61141,4.25 z m 65.18134,-37.93961 C 683.7152,552.3252 691.39419,545.52236 695.51858,533 c 0.99632,-3.025 2.00598,-4.91872 2.2437,-4.20826 0.31045,0.92782 0.79128,0.99373 1.70676,0.23396 0.97218,-0.80685 1.41764,-0.34229 1.87775,1.95826 0.75168,3.75838 2.65321,3.96876 2.65321,0.29353 v -2.7225 l 1.5567,2.2225 c 2.10317,3.00269 3.44226,2.79784 3.44827,-0.52749 l 0.005,-2.75 2.56518,3 2.56517,3 -0.57746,-3.41161 c -0.5516,-3.25881 -0.49523,-3.33719 1.2586,-1.75 2.61165,2.3635 3.31215,2.06667 2.56852,-1.08839 -0.53294,-2.26118 -0.4119,-2.52781 0.68095,-1.5 1.97994,1.86209 3.13895,1.51061 2.00507,-0.60806 -0.8082,-1.51014 -0.53115,-2.06914 1.47955,-2.98528 1.36067,-0.61996 3.01364,-2.31169 3.67326,-3.7594 1.06266,-2.3323 0.93068,-2.84973 -1.15837,-4.54133 -2.15448,-1.7446 -2.5392,-1.77579 -4.46404,-0.36193 -7.22647,5.30809 -17.92655,7.83667 -21.96494,5.19062 C 695.35462,517.18625 693.36765,511 695.17319,511 c 0.45475,0 0.82681,0.675 0.82681,1.5 0,0.825 0.45,1.5 1,1.5 0.55,0 1,-0.675 1,-1.5 0,-0.825 0.45,-1.5 1,-1.5 0.55,0 1,0.53601 1,1.19113 0,0.65512 0.62494,0.33647 1.38876,-0.70811 0.76381,-1.04458 1.14175,-2.59309 0.83987,-3.44113 -0.35837,-1.00671 0.31002,-0.76093 1.92569,0.70811 1.36102,1.2375 3.00808,2.25 3.66013,2.25 1.67208,0 1.47434,-2.51544 -0.31445,-4 -0.825,-0.68469 -1.5,-1.95479 -1.5,-2.82244 0,-1.22699 0.26667,-1.31089 1.2,-0.37756 0.66,0.66 1.83675,1.2 2.61501,1.2 1.17866,0 1.15395,-0.39843 -0.14795,-2.38538 -1.69028,-2.57969 -1.30487,-3.7966 0.93071,-2.93873 1.62524,0.62367 1.87009,-0.80803 0.39111,-2.28701 -0.6815,-0.6815 -0.34328,-2.9472 1.03748,-6.95 2.34771,-6.80597 2.24985,-10.26468 -0.33493,-11.83802 -2.3805,-1.44899 -3.88044,0.55719 -6.09795,8.15602 -2.48273,8.50768 -3.57926,10.07397 -9.31706,13.30863 l -5.22358,2.94477 -1.5915,-2.42894 c -1.45852,-2.22599 -1.45421,-2.69444 0.0516,-5.60629 0.90369,-1.74754 1.99092,-6.62783 2.41606,-10.84509 0.42515,-4.21726 1.74005,-9.85394 2.92202,-12.52597 2.52268,-5.70294 2.6839,-7.91519 0.69701,-9.56416 -3.99648,-3.31679 -8.98095,3.78347 -11.07444,15.77527 -1.40414,8.04309 -2.98137,13.1849 -4.04443,13.1849 -0.34121,0 -1.81485,-0.8356 -3.27475,-1.8569 -4.62705,-3.23691 -15.72519,-7.10354 -23.4878,-8.18321 -12.92646,-1.79791 -27.25907,1.05344 -35.77462,7.11705 -1.58307,1.12724 -3.32603,1.77282 -3.87326,1.43461 -2.10198,-1.2991 -5.93177,-9.37767 -8.51032,-17.95169 -2.02135,-6.72127 -3.52447,-9.77596 -6.05629,-12.30778 -2.85614,-2.85614 -3.67782,-3.20163 -5.40986,-2.27468 -2.63709,1.41133 -2.57353,3.03884 0.34392,8.80584 1.31238,2.59422 2.84849,7.69596 3.41358,11.33719 1.11532,7.18676 3.57089,12.7897 7.81668,17.83554 2.19904,2.6134 2.44608,3.38738 1.30611,4.09192 -3.68484,2.27735 -13.60608,-3.33873 -19.53671,-11.05907 -2.31902,-3.01885 -5.83461,-7.22719 -7.81242,-9.35187 -2.98093,-3.20229 -3.85065,-3.65172 -5.0847,-2.62756 -0.81877,0.67953 -1.48868,2.09536 -1.48868,3.1463 0,2.18264 4.46311,11.47567 6.76899,14.09431 1.39081,1.57946 1.37949,1.92845 -0.11618,3.58115 -1.99608,2.20564 -1.11157,3.48474 1.45856,2.10925 1.66633,-0.8918 1.78551,-0.67481 1.20995,2.20302 -0.68039,3.40195 -0.94721,3.33892 4.60229,1.08704 1.07429,-0.43593 1.23048,-0.10567 0.63655,1.34593 -2.35425,5.75385 -1.60246,6.97496 2.14483,3.48383 2.39899,-2.23501 3.29501,-1.75602 3.29501,1.76143 0,2.42498 0.0509,2.44225 2,0.67835 1.95228,-1.76679 2,-1.74663 2,0.84501 0,3.43205 1.53768,3.38944 3.42803,-0.095 1.33522,-2.4612 1.4961,-2.52684 1.53193,-0.625 0.022,1.16875 -0.24121,3.53125 -0.58496,5.25 -0.59275,2.96377 -0.86362,3.12387 -5.25,3.10304 -4.91243,-0.0233 -10.60372,-2.19269 -16.80174,-6.40435 -4.30088,-2.92252 -8.44524,-3.30885 -10.75183,-1.00226 -3.43362,3.43362 -0.49555,7.88013 6.99711,10.58952 2.87255,1.03872 3.2843,1.5772 2.77072,3.62347 -0.60094,2.39432 -0.59133,2.39729 2.52876,0.78383 3.01157,-1.55735 3.13198,-1.54174 3.13198,0.40607 0,2.45857 0.76533,2.54803 3.17126,0.37069 1.74504,-1.57923 1.83039,-1.45336 1.8647,2.75 l 0.036,4.40499 2.45907,-3 2.45907,-3 0.005,2.75 c 0.006,3.58214 0.99137,3.45015 3.75497,-0.5032 1.2375,-1.77025 2.25,-2.61433 2.25,-1.87573 0,0.7386 0.60481,1.11082 1.34401,0.82716 0.84124,-0.32281 2.58119,1.52559 4.65124,4.94115 6.01117,9.91839 16.00657,16.88055 29.19535,20.33564 8.85808,2.32057 24.80612,2.57995 35.99074,0.58537 z M 651.5,543.57557 c -7.06286,-1.99374 -16.37243,-5.56014 -16.94896,-6.49299 -0.26784,-0.43336 0.1264,-1.62678 0.87608,-2.65203 1.32485,-1.81184 1.55522,-1.80264 8.21797,0.32818 16.46203,5.26471 22.40162,5.41014 31.86493,0.78017 3.80638,-1.86229 5.99017,-2.43871 6.66867,-1.76021 2.12348,2.12348 0.21532,4.77428 -5.48904,7.62537 -6.99493,3.49612 -17.3384,4.38779 -25.18965,2.17151 z m -20.42742,-20.21043 c -2.5932,-3.29671 -2.62575,-5.55455 -0.11287,-7.82867 2.76666,-2.5038 6.5641,-1.34124 7.87174,2.40988 0.85446,2.4511 0.68767,3.39527 -0.97265,5.50603 -2.54593,3.23662 -4.18828,3.2155 -6.78622,-0.0872 z m 46.98495,1.20418 c -1.79228,-2.15956 -1.5925,-7.46673 0.35309,-9.37971 1.61497,-1.58791 1.83491,-1.54751 3.65389,0.67117 1.06452,1.29844 1.93549,3.57094 1.93549,5.05 0,4.46615 -3.48933,6.61439 -5.94247,3.65854 z M 323.76056,505 c 6.1859,-19.59189 6.15993,-18 0.29368,-18 -3.78076,0 -5.17342,0.42245 -5.76906,1.75 -1.05663,2.35501 -0.40819,30.78473 0.67618,29.64555 0.46886,-0.49255 2.6285,-6.52055 4.7992,-13.39555 z m 26.90844,-4 c 2.33364,-9.625 4.0398,-18.09406 3.79146,-18.82014 -0.24833,-0.72607 -1.46603,-1.17607 -2.70599,-1 -2.03918,0.28957 -2.65661,1.94356 -6.46562,17.32014 -5.11525,20.64982 -5.12147,20.72995 -1.57585,20.31642 2.64617,-0.30862 2.81754,-0.74756 6.956,-17.81642 z M 301.5,618.6856 c -1.89267,-1.45042 -1.99718,-2.67719 -1.94754,-22.85913 0.0428,-17.38512 0.35162,-22.00723 1.67122,-25.01005 2.94662,-6.70519 3.6121,-6.82243 44.47129,-7.83473 22.6213,-0.56045 37.24378,-0.54965 38.3237,0.0283 0.96041,0.514 1.97187,2.40952 2.24769,4.21227 0.59133,3.86478 -0.72974,18.3313 -3.26394,35.74234 -2.40418,16.5177 -1.78905,16.0354 -20.4516,16.0354 -7.82518,0 -24.31283,0.27411 -36.63921,0.60914 -19.23958,0.52292 -22.69468,0.39221 -24.41161,-0.92354 z m 97.27669,-12.82187 c -1.74652,-1.08237 -1.15389,-5.22657 2.17729,-15.2256 C 405.50764,576.96964 405.45486,577 424.66624,577 c 12.68943,0 15.49665,0.26092 15.96599,1.48398 0.64889,1.69099 -7.30852,25.00632 -9.01371,26.41031 -1.27786,1.05214 -31.27938,1.93773 -32.84183,0.96944 z M 752,561.63186 v -16.36813 l 7.40895,-15.38187 c 12.31792,-25.57347 19.73736,-48.17741 23.48935,-71.56235 10.738,-66.92633 -1.64862,-130.94035 -36.46287,-188.43998 C 726.13558,236.35205 696.18992,205.15439 664,183.99755 654.93634,178.04045 635.04535,167.60587 628.21298,165.22409 626.44584,164.60806 625,163.6194 625,163.02706 c 0,-0.59235 1.58066,-4.21575 3.51257,-8.05202 2.51828,-5.00064 4.05738,-6.97504 5.43722,-6.97504 3.26298,0 28.92553,13.45084 41.01788,21.49922 101.82011,67.76906 151.09337,194.60219 121.43935,312.59412 C 790.28407,506.45627 781.11929,530.06385 769.85064,550.5 763.52675,561.96861 753.42511,578 752.52243,578 752.23509,578 752,570.63434 752,561.63186 Z m -491.32505,2.53392 C 228.73584,510.63476 214.29255,453.42 217.98658,395.06276 221.33667,342.13908 236.65846,296.15522 265.4884,252.5 c 11.35658,-17.1965 22.54097,-30.65499 39.94846,-48.07107 16.57223,-16.58041 30.47807,-27.735 49.06314,-39.35606 12.21618,-7.63866 31.88553,-17.33501 34.25905,-16.88859 2.03774,0.38326 8.33713,11.49758 7.98306,14.0849 -0.16165,1.18122 -3.44973,3.21096 -9.89383,6.10749 -22.38808,10.06311 -45.27866,26.16893 -66.22149,46.59346 C 265.53572,268.69778 236,337.66159 236,412.56772 c 0,46.89029 11.17261,89.30914 34.85323,132.3266 l 6.10143,11.08367 -2.39993,3.53651 C 272.42727,562.64948 270,570.63021 270,574.4902 c 0,3.93398 -2.40955,1.2662 -9.32505,-10.32442 z M 502.2,573.8 c -1.59849,-1.59849 -1.52973,-6.28146 0.11224,-7.64417 2.09591,-1.73946 20.31645,-2.70888 22.15982,-1.17902 2.30289,1.91123 1.91506,6.63863 -0.69457,8.46649 -2.78087,1.9478 -19.70659,2.2276 -21.57749,0.3567 z m -28.98364,-42.98364 c -1.70892,-1.70892 -1.52301,-6.43087 0.81958,-20.81636 3.50035,-21.49509 7.8806,-39.23779 10.30206,-41.7296 2.12364,-2.18534 2.42463,-2.21073 15.16432,-1.27917 7.14873,0.52274 14.42804,0.96356 16.17625,0.9796 6.4208,0.0589 6.44022,0.15931 6.11479,31.60975 -0.2446,23.63826 -0.5427,28.58575 -1.79336,29.76317 -2.08021,1.95838 -44.9485,3.30775 -46.78364,1.47261 z M 409.97311,373.73574 C 397.60596,369.49546 388.40381,360.29432 384.00949,347.77498 382.08598,342.29492 382,339.57506 382,284.20648 c 0,-64.48636 -0.13394,-63.04759 6.87968,-73.89902 4.66007,-7.21004 13.09191,-13.63143 21.07869,-16.05281 4.74055,-1.43721 10.78181,-1.68547 41.79162,-1.71736 l 36.24998,-0.0373 2e-5,-12.17639 10e-6,-12.17638 -26.25,-0.32362 c -29.92247,-0.36888 -31.60743,-0.76443 -37.25,-8.74453 -2.96884,-4.19873 -3.00342,-4.40035 -3.32949,-19.41094 -0.35991,-16.56917 0.37573,-20.78699 4.47525,-25.65899 C 430.96767,107.68441 426.46926,108 511.3003,108 h 77.39962 l 3.98095,2.88378 c 6.86734,4.97468 7.81913,8.21455 7.81913,26.61622 0,15.71366 -0.05,16.08504 -2.79314,20.75169 -1.82268,3.10073 -4.25479,5.53285 -7,7 -4.01084,2.14355 -5.41833,2.26008 -30.20686,2.50102 l -26,0.2527 -0.27824,12.2473 -0.27824,12.24729 28.19822,-0.16591 c 37.38336,-0.21995 47.64108,0.56107 55.39482,4.21773 11.21415,5.28858 19.91446,16.90613 22.428,29.94818 0.81349,4.22097 1.0643,22.30777 0.8459,61 -0.3036,53.78469 -0.35888,55.12813 -2.50194,60.79883 C 633.9808,359.75036 625.32289,368.63969 614,373.25712 l -5.5,2.24288 -96,0.23679 -96,0.2368 z M 532.5,352.5922 c 11.40586,-3.62282 19.81867,-8.87792 29,-18.11496 12.08595,-12.15929 17.96549,-23.73272 20.57518,-40.50069 4.56229,-29.31398 -11.55182,-60.28104 -38.17161,-73.35573 -12.60111,-6.18922 -19.98709,-7.97351 -32.90357,-7.94876 -33.47825,0.0642 -61.8757,22.54977 -69.55795,55.07724 -2.34958,9.94836 -1.57875,28.96435 1.55052,38.2507 8.71009,25.84788 29.85389,44.16159 56.58243,49.0089 8.54568,1.54978 24.01107,0.41462 32.925,-2.4167 z m -35.38767,-16.11191 c -13.45375,-3.77009 -27.54326,-15.03149 -33.85784,-27.06174 -11.21048,-21.35769 -7.39106,-46.53503 9.63003,-63.48062 11.70149,-11.64958 24.94822,-16.63324 41.61548,-15.65649 11.00837,0.64513 18.78188,3.24182 27.54672,9.20182 26.23553,17.83988 31.3141,54.06946 11.0966,79.16092 -5.05346,6.27171 -15.5582,13.60047 -23.64332,16.49503 -7.89646,2.82702 -24.61469,3.51928 -32.38767,1.34108 z m 27.60016,-18.64278 c 8.09034,-3.02293 17.13266,-12.12221 20.2102,-20.33751 1.83357,-4.89458 2.18592,-7.57065 1.91249,-14.52522 -0.28367,-7.215 -0.83936,-9.54872 -3.61575,-15.18482 -8.28969,-16.82814 -27.14568,-24.27355 -44.78343,-17.68303 -8.1366,3.04032 -17.19553,12.065 -20.47047,20.39307 -3.48495,8.86209 -3.39838,20.00572 0.21532,27.71807 4.52673,9.66093 13.73537,18.07363 22.81915,20.8468 5.38802,1.6449 17.73591,1.00577 23.71249,-1.22736 z m -20.0573,-15.29616 c -18.81713,-6.70923 -15.86234,-35.69864 3.80488,-37.3296 10.48516,-0.86951 18.43293,4.17248 21.11382,13.39441 1.41347,4.86219 1.41718,5.91274 0.0376,10.65841 -1.90752,6.56165 -6.61744,11.33106 -13.1233,13.28903 -5.80648,1.74749 -6.90066,1.74636 -11.83297,-0.0122 z"
       id="path1" />
  </g>
</svg>
